<svg width="12" height="18" viewBox="0 0 12 18" fill="none" xmlns="http://www.w3.org/2000/svg">
<path d="M5.99999 8.56005C6.37333 8.56005 6.71999 8.46672 7.03999 8.28005C7.35999 8.09339 7.61333 7.84672 7.79999 7.54005C7.98666 7.22005 8.07999 6.87339 8.07999 6.50005C8.07999 6.12672 7.98666 5.78005 7.79999 5.46005C7.61333 5.14005 7.35999 4.88672 7.03999 4.70005C6.71999 4.51339 6.37333 4.42005 5.99999 4.42005C5.62666 4.42005 5.27999 4.51339 4.95999 4.70005C4.65333 4.88672 4.40666 5.14005 4.21999 5.46005C4.03333 5.78005 3.93999 6.12672 3.93999 6.50005C3.93999 7.07339 4.13999 7.56005 4.53999 7.96005C4.93999 8.36005 5.42666 8.56005 5.99999 8.56005ZM5.99999 0.680054C7.06666 0.680054 8.04666 0.940054 8.93999 1.46005C9.81999 1.98005 10.52 2.68005 11.04 3.56005C11.56 4.45339 11.82 5.43339 11.82 6.50005C11.82 7.31339 11.62 8.24672 11.22 9.30005C10.8733 10.1934 10.3933 11.1601 9.77999 12.2001C9.27333 13.0267 8.69333 13.8867 8.03999 14.7801C7.58666 15.4067 7.10666 16.0201 6.59999 16.6201L5.99999 17.3201L5.39999 16.6201C4.89333 16.0201 4.41333 15.4067 3.95999 14.7801C3.30666 13.8867 2.72666 13.0267 2.21999 12.2001C1.60666 11.1601 1.12666 10.1934 0.779993 9.30005C0.379993 8.24672 0.179993 7.31339 0.179993 6.50005C0.179993 5.43339 0.439992 4.45339 0.959992 3.56005C1.47999 2.68005 2.17999 1.98005 3.05999 1.46005C3.95333 0.940054 4.93333 0.680054 5.99999 0.680054Z" fill="#51516F"/>
</svg>
